<!DOCTYPE svg PUBLIC "-//W3C//DTD SVG 1.1//EN" "http://www.w3.org/Graphics/SVG/1.1/DTD/svg11.dtd"><svg xmlns="http://www.w3.org/2000/svg" id="sfn-svg" class="sfn-workflow-graph" width="683" height="607">  
<g transform="translate(0,8)"><g class="nodes"><g class="node-container" transform="translate(339.0390625,18.5)"><g class="node anchor"><circle class="shape" x="-15.875" y="-8.5" r="25.875"/><text class="label"><tspan xml:space="preserve" text-anchor="middle" alignment-baseline="central">Start</tspan></text></g></g><g class="node-container" transform="translate(271.875,576.875)"><g class="node anchor"><circle class="shape" x="-12.1875" y="-8.5" r="22.1875"/><text class="label"><tspan xml:space="preserve" text-anchor="middle" alignment-baseline="central">End</tspan></text></g></g><g class="node-container" transform="translate(339.0390625,80.53125)"><g class="node state Task Succeeded"><rect class="shape" rx="5" ry="5" x="-106.953125" y="-18.53125" width="213.90625" height="37.0625"/><text class="label"><tspan xml:space="preserve" text-anchor="middle" alignment-baseline="central">RequestForStringManipulation</tspan></text></g></g><g class="node-container" transform="translate(339.0390625,142.5625)"><g class="node state Task Succeeded"><rect class="shape" rx="5" ry="5" x="-54.03125" y="-18.5" width="108.0625" height="37"/><text class="label"><tspan xml:space="preserve" text-anchor="middle" alignment-baseline="central">HasNumerical</tspan></text></g></g><g class="node-container" transform="translate(339.0390625,204.5625)"><g class="node state Choice Succeeded"><rect class="shape" rx="5" ry="5" x="-47.78125" y="-18.5" width="95.5625" height="37"/><text class="label"><tspan xml:space="preserve" text-anchor="middle" alignment-baseline="central">ChoiceState</tspan></text></g></g><g class="node-container" transform="translate(602.109375,514.84375)"><g class="node state Fail NotYetStarted"><rect class="shape" rx="5" ry="5" x="-45.546875" y="-18.5" width="91.09375" height="37"/><text class="label"><tspan xml:space="preserve" text-anchor="middle" alignment-baseline="central">FailedState</tspan></text></g></g><g class="node-container" transform="translate(173.921875,266.59375)"><g class="node state Task Succeeded"><rect class="shape" rx="5" ry="5" x="-53.71875" y="-18.53125" width="107.4375" height="37.0625"/><text class="label"><tspan xml:space="preserve" text-anchor="middle" alignment-baseline="central">ReverseString</tspan></text></g></g><g class="node-container" transform="translate(173.921875,328.65625)"><g class="node state Task Succeeded"><rect class="shape" rx="5" ry="5" x="-60.234375" y="-18.53125" width="120.46875" height="37.0625"/><text class="label"><tspan xml:space="preserve" text-anchor="middle" alignment-baseline="central">CapitalizeString</tspan></text></g></g><g class="node-container" transform="translate(173.921875,390.71875)"><g class="node state Task Succeeded"><rect class="shape" rx="5" ry="5" x="-49.15625" y="-18.53125" width="98.3125" height="37.0625"/><text class="label"><tspan xml:space="preserve" text-anchor="middle" alignment-baseline="central">QuoteString</tspan></text></g></g><g class="node-container" transform="translate(173.921875,452.78125)"><g class="node state Task Succeeded"><rect class="shape" rx="5" ry="5" x="-45.109375" y="-18.53125" width="90.21875" height="37.0625"/><text class="label"><tspan xml:space="preserve" text-anchor="middle" alignment-baseline="central">HashString</tspan></text></g></g><g class="node-container" transform="translate(75.96875,514.84375)"><g class="node state Pass NotYetStarted"><rect class="shape" rx="5" ry="5" x="-75.96875" y="-18.5" width="151.9375" height="37"/><text class="label"><tspan xml:space="preserve" text-anchor="middle" alignment-baseline="central">CustomErrorFallback</tspan></text></g></g><g class="node-container" transform="translate(271.875,514.84375)"><g class="node state Pass NotYetStarted"><rect class="shape" rx="5" ry="5" x="-79.9375" y="-18.53125" width="159.875" height="37.0625"/><text class="label"><tspan xml:space="preserve" text-anchor="middle" alignment-baseline="central">ReservedTypeFallback</tspan></text></g></g><g class="node-container" transform="translate(454.1875,514.84375)"><g class="node state Pass NotYetStarted"><rect class="shape" rx="5" ry="5" x="-62.375" y="-18.5" width="124.75" height="37"/><text class="label"><tspan xml:space="preserve" text-anchor="middle" alignment-baseline="central">CatchAllFallback</tspan></text></g></g></g><g class="edges"><g class="edge"><path class="path" marker-end="url(#arrowhead1)" d="M339.0390625,99.0625L339.0390625,101.14583333333331C339.0390625,103.22916666666666,339.0390625,107.39583333333333,339.0390625,111.56249999999999C339.0390625,115.72916666666666,339.0390625,119.89583333333333,339.0390625,121.97916666666666L339.0390625,124.0625" style="fill: none;"/><defs><marker id="arrowhead1" viewBox="0 0 10 10" refX="9" refY="5" markerUnits="strokeWidth" markerWidth="8" markerHeight="6" orient="auto"><path d="M 0 0 L 10 5 L 0 10 z"/></marker></defs></g><g class="edge"><path class="path" marker-end="url(#arrowhead2)" d="M339.0390625,44.375L339.0390625,45.229166666666664C339.0390625,46.08333333333333,339.0390625,47.791666666666664,339.0390625,50.72916666666667C339.0390625,53.666666666666664,339.0390625,57.83333333333333,339.0390625,59.91666666666666L339.0390625,62" style="fill: none;"/><defs><marker id="arrowhead2" viewBox="0 0 10 10" refX="9" refY="5" markerUnits="strokeWidth" markerWidth="8" markerHeight="6" orient="auto"><path d="M 0 0 L 10 5 L 0 10 z"/></marker></defs></g><g class="edge"><path class="path" marker-end="url(#arrowhead3)" d="M339.0390625,161.0625L339.0390625,163.14583333333334C339.0390625,165.22916666666666,339.0390625,169.39583333333331,339.0390625,173.56249999999997C339.0390625,177.72916666666666,339.0390625,181.89583333333331,339.0390625,183.97916666666666L339.0390625,186.0625" style="fill: none;"/><defs><marker id="arrowhead3" viewBox="0 0 10 10" refX="9" refY="5" markerUnits="strokeWidth" markerWidth="8" markerHeight="6" orient="auto"><path d="M 0 0 L 10 5 L 0 10 z"/></marker></defs></g><g class="edge"><path class="path" marker-end="url(#arrowhead4)" d="M386.8203125,210.19300515249606L422.70182291666663,214.4212542937467C458.5833333333333,218.64950343499737,530.3463541666666,227.10600171749866,566.2278645833333,236.50612585874933C602.109375,245.90625,602.109375,256.25,602.109375,266.59375C602.109375,276.9375,602.109375,287.28125,602.109375,297.625C602.109375,307.96875,602.109375,318.3125,602.109375,328.65625C602.109375,339,602.109375,349.34375,602.109375,359.6875C602.109375,370.03125,602.109375,380.37499999999994,602.109375,390.71875C602.109375,401.06249999999994,602.109375,411.40624999999994,602.109375,421.7499999999999C602.109375,432.09374999999994,602.109375,442.43749999999994,602.109375,452.7812499999999C602.109375,463.12499999999994,602.109375,473.46874999999994,602.109375,480.7291666666666C602.109375,487.98958333333326,602.109375,492.16666666666663,602.109375,494.2552083333333L602.109375,496.34375" style="fill: none;"/><defs><marker id="arrowhead4" viewBox="0 0 10 10" refX="9" refY="5" markerUnits="strokeWidth" markerWidth="8" markerHeight="6" orient="auto"><path d="M 0 0 L 10 5 L 0 10 z"/></marker></defs></g><g class="edge"><path class="path" marker-end="url(#arrowhead5)" d="M291.2578125,213.53321208895198L271.7018229166667,217.20476007412663C252.14583333333331,220.87630805930132,213.03385416666666,228.21940402965066,193.47786458333331,233.97428534815865C173.921875,239.72916666666666,173.921875,243.89583333333331,173.92187499999997,245.97916666666666L173.921875,248.0625" style="fill: none;"/><defs><marker id="arrowhead5" viewBox="0 0 10 10" refX="9" refY="5" markerUnits="strokeWidth" markerWidth="8" markerHeight="6" orient="auto"><path d="M 0 0 L 10 5 L 0 10 z"/></marker></defs></g><g class="edge"><path class="path" marker-end="url(#arrowhead6)" d="M173.921875,285.125L173.92187499999997,287.2083333333333C173.921875,289.29166666666663,173.921875,293.4583333333333,173.92187499999997,297.625C173.921875,301.79166666666663,173.921875,305.9583333333333,173.92187499999997,308.0416666666667L173.921875,310.125" style="fill: none;"/><defs><marker id="arrowhead6" viewBox="0 0 10 10" refX="9" refY="5" markerUnits="strokeWidth" markerWidth="8" markerHeight="6" orient="auto"><path d="M 0 0 L 10 5 L 0 10 z"/></marker></defs></g><g class="edge"><path class="path" marker-end="url(#arrowhead7)" d="M173.921875,347.1875L173.92187499999997,349.2708333333333C173.921875,351.35416666666663,173.921875,355.5208333333333,173.92187499999997,359.6875C173.921875,363.85416666666663,173.921875,368.0208333333333,173.92187499999997,370.1041666666667L173.921875,372.1875" style="fill: none;"/><defs><marker id="arrowhead7" viewBox="0 0 10 10" refX="9" refY="5" markerUnits="strokeWidth" markerWidth="8" markerHeight="6" orient="auto"><path d="M 0 0 L 10 5 L 0 10 z"/></marker></defs></g><g class="edge"><path class="path" marker-end="url(#arrowhead8)" d="M173.921875,409.25L173.92187499999997,411.33333333333326C173.921875,413.41666666666663,173.921875,417.58333333333326,173.92187499999997,421.74999999999994C173.921875,425.91666666666663,173.921875,430.0833333333333,173.92187499999997,432.16666666666663L173.921875,434.25" style="fill: none;"/><defs><marker id="arrowhead8" viewBox="0 0 10 10" refX="9" refY="5" markerUnits="strokeWidth" markerWidth="8" markerHeight="6" orient="auto"><path d="M 0 0 L 10 5 L 0 10 z"/></marker></defs></g><g class="edge"><path class="path" marker-end="url(#arrowhead9)" d="M128.8125,467.07176184399424L120.00520833333333,469.86188486999515C111.19791666666666,472.6520078959961,93.58333333333333,478.23225394799806,84.77604166666666,483.11091864066566C75.96875,487.98958333333326,75.96875,492.16666666666663,75.96874999999999,494.2552083333333L75.96875,496.34375" style="fill: none;"/><defs><marker id="arrowhead9" viewBox="0 0 10 10" refX="9" refY="5" markerUnits="strokeWidth" markerWidth="8" markerHeight="6" orient="auto"><path d="M 0 0 L 10 5 L 0 10 z"/></marker></defs></g><g class="edge"><path class="path" marker-end="url(#arrowhead10)" d="M219.03125,467.07176184399424L227.83854166666663,469.86188486999515C236.64583333333331,472.6520078959961,254.26041666666666,478.23225394799806,263.0677083333333,483.10571030733234C271.875,487.97916666666663,271.875,492.1458333333333,271.875,494.22916666666663L271.875,496.3125" style="fill: none;"/><defs><marker id="arrowhead10" viewBox="0 0 10 10" refX="9" refY="5" markerUnits="strokeWidth" markerWidth="8" markerHeight="6" orient="auto"><path d="M 0 0 L 10 5 L 0 10 z"/></marker></defs></g><g class="edge"><path class="path" marker-end="url(#arrowhead11)" d="M219.03125,457.7757986285332L258.22395833333326,462.11524885711094C297.41666666666663,466.4546990856888,375.80208333333326,475.13359954284437,414.99479166666663,481.5615914380888C454.18749999999994,487.98958333333326,454.18749999999994,492.16666666666663,454.1874999999999,494.2552083333333L454.1875,496.34375" style="fill: none;"/><defs><marker id="arrowhead11" viewBox="0 0 10 10" refX="9" refY="5" markerUnits="strokeWidth" markerWidth="8" markerHeight="6" orient="auto"><path d="M 0 0 L 10 5 L 0 10 z"/></marker></defs></g><g class="edge"><path class="path" marker-end="url(#arrowhead12)" d="M128.8125,459.4813635853713L101.51041666666667,463.5365529878094C74.20833333333333,467.5917423902475,19.604166666666668,475.7021211951237,-7.697916666666665,484.92918559756185C-35,494.15624999999994,-35,504.49999999999994,-35,514.8437499999999C-35,525.1875,-35,535.53125,12.466641547157558,545.4981258569022C59.933283094315115,555.4650017138044,154.86656618863023,565.0550034276091,202.33320773578777,569.8500042845113L249.79984928294536,574.6450051414137" style="fill: none;"/><defs><marker id="arrowhead12" viewBox="0 0 10 10" refX="9" refY="5" markerUnits="strokeWidth" markerWidth="8" markerHeight="6" orient="auto"><path d="M 0 0 L 10 5 L 0 10 z"/></marker></defs></g><g class="edge"><path class="path" marker-end="url(#arrowhead13)" d="M75.96875,533.34375L75.96874999999999,535.4322916666666C75.96875,537.5208333333333,75.96875,541.6979166666666,104.96732042361951,548.3751617725151C133.96589084723905,555.0524068783635,191.96303169447808,564.229813756727,220.96160211809763,568.8185171959088L249.96017254171713,573.4072206350907" style="fill: none;"/><defs><marker id="arrowhead13" viewBox="0 0 10 10" refX="9" refY="5" markerUnits="strokeWidth" markerWidth="8" markerHeight="6" orient="auto"><path d="M 0 0 L 10 5 L 0 10 z"/></marker></defs></g><g class="edge"><path class="path" marker-end="url(#arrowhead14)" d="M271.875,533.375L271.875,535.4583333333333C271.875,537.5416666666666,271.875,541.7083333333333,271.875,545.2604166666666C271.875,548.8125,271.875,551.75,271.875,553.2187499999999L271.875,554.6875" style="fill: none;"/><defs><marker id="arrowhead14" viewBox="0 0 10 10" refX="9" refY="5" markerUnits="strokeWidth" markerWidth="8" markerHeight="6" orient="auto"><path d="M 0 0 L 10 5 L 0 10 z"/></marker></defs></g><g class="edge"><path class="path" marker-end="url(#arrowhead15)" d="M454.1875,533.34375L454.1874999999999,535.4322916666666C454.18749999999994,537.5208333333333,454.18749999999994,541.6979166666666,427.44767338289057,548.333237216462C400.70784676578126,554.9685577662572,347.2281935315626,564.0621155325146,320.4883669144533,568.6088944156431L293.748540297344,573.1556732987718" style="fill: none;"/><defs><marker id="arrowhead15" viewBox="0 0 10 10" refX="9" refY="5" markerUnits="strokeWidth" markerWidth="8" markerHeight="6" orient="auto"><path d="M 0 0 L 10 5 L 0 10 z"/></marker></defs></g><g class="edge"><path class="path" marker-end="url(#arrowhead16)" d="M602.109375,533.34375L602.109375,535.4322916666666C602.109375,537.5208333333333,602.109375,541.6979166666666,550.7520428809262,548.6075109438959C499.39471076185225,555.5171052211253,396.6800465237045,565.1592104422507,345.32271440463063,569.9802630528134L293.96538228555676,574.8013156633762" style="fill: none;"/><defs><marker id="arrowhead16" viewBox="0 0 10 10" refX="9" refY="5" markerUnits="strokeWidth" markerWidth="8" markerHeight="6" orient="auto"><path d="M 0 0 L 10 5 L 0 10 z"/></marker></defs></g></g></g><style xmlns="http://www.w3.org/1999/xhtml">.node &gt; .shape {stroke: #555555;stroke-width: 0.6px;fill: #FFFFFF;} path {stroke: #555;background-color: #555;stroke-width: 1px;} .node.state.NotYetStarted &gt; .shape,.node.state.Container &gt; .shape {stroke-dasharray: 5 2;} .node.state.Failed &gt; .shape,rect.legend.Failed {fill: #DE322F;} .node.state.CaughtError &gt; .shape,rect.legend.CaughtError {fill: #FFA500;} .node.state.Succeeded &gt; .shape,rect.legend.Succeeded {fill: #2BD62E;} .node.state.InProgress &gt; .shape,rect.legend.InProgress {fill: #53c9ed;} .node.state.Cancelled &gt; .shape,rect.legend.Cancelled {fill: #dddddd;} .node.anchor &gt; .shape {fill: #FFDA75;} .node.state.hovered:not(.selected):not(.NotYetStarted) &gt; .shape,.node.selected &gt; .shape {stroke: #555555;stroke-width: 2px;} .node.state.Container.Failed &gt; .shape {fill: #EE9592;} .node.state.Container.CaughtError &gt; .shape {fill: #FFD27F;} .node.state.Container.Succeeded &gt; .shape {fill: #91EA9A;} .node.state.Container.InProgress &gt; .shape {fill :#A9E4F7;} .node.state.Container.Cancelled &gt; .shape {fill: #EEEEEE;} marker {fill: #555555;} .node.anchor,.node.state.NotYetStarted {cursor: default;} .node.state {cursor: pointer;} tspan .label {font-weight: normal;font-size: 12px;text-shadow: none;} </style></svg>